<svg width="4418" height="541" xmlns="http://www.w3.org/2000/svg" xmlns:xlink="http://www.w3.org/1999/xlink" xml:space="preserve" overflow="hidden"><defs><linearGradient x1="960.833" y1="-564.167" x2="3439.17" y2="1914.17" gradientUnits="userSpaceOnUse" spreadMethod="reflect" id="stroke0"><stop offset="0" stop-color="#AC32E4" stop-opacity="1"/><stop offset="0.5" stop-color="#7918F2" stop-opacity="1"/><stop offset="1" stop-color="#4801FF" stop-opacity="1"/></linearGradient><linearGradient x1="259.683" y1="118.756" x2="583.244" y2="442.756" gradientUnits="userSpaceOnUse" spreadMethod="reflect" id="fill1"><stop offset="0" stop-color="#AC32E4" stop-opacity="1"/><stop offset="0.48" stop-color="#7918F2" stop-opacity="1"/><stop offset="1" stop-color="#4801FF" stop-opacity="1"/></linearGradient><linearGradient x1="3617.03" y1="427.195" x2="3726.97" y2="922.805" gradientUnits="userSpaceOnUse" spreadMethod="reflect" id="fill2"><stop offset="0" stop-color="#AC32E4" stop-opacity="1"/><stop offset="0.48" stop-color="#7918F2" stop-opacity="1"/><stop offset="1" stop-color="#4801FF" stop-opacity="1"/></linearGradient></defs><g transform="translate(9 -403)"><g><rect x="0" y="415" width="4400" height="520" stroke="url(#stroke0)" stroke-width="18.3333" stroke-linecap="butt" stroke-linejoin="miter" stroke-miterlimit="8" fill="#7918F2" fill-opacity="0.0509804"/><g><g><g><g><g><path d="M259.464 143.269C259.464 129.852 270.34 118.976 283.757 118.976L559.173 118.976C572.589 118.976 583.464 129.852 583.464 143.269L583.464 418.244C583.464 431.66 572.589 442.537 559.173 442.537L283.757 442.537C270.34 442.537 259.464 431.66 259.464 418.244Z" fill="url(#fill1)" fill-rule="evenodd" transform="matrix(1.00345 0 0 1 -117.919 394.463)"/><path d="M347.708 211.87C361.858 211.87 373.329 223.341 373.329 237.492 373.329 251.642 361.858 263.114 347.708 263.114 333.557 263.114 322.086 251.642 322.086 237.492 322.086 223.341 333.557 211.87 347.708 211.87ZM347.708 208.869C331.9 208.869 319.084 221.684 319.084 237.492 319.084 253.3 331.9 266.115 347.708 266.115 363.515 266.115 376.331 253.3 376.331 237.492 376.331 221.684 363.515 208.869 347.708 208.869ZM347.708 205.464C365.165 205.464 379.317 219.615 379.317 237.073 379.317 254.531 365.165 268.683 347.708 268.683 330.25 268.683 316.098 254.531 316.098 237.073 316.098 219.615 330.25 205.464 347.708 205.464Z" fill="#FFFFFF" fill-rule="evenodd" fill-opacity="1" transform="matrix(1.00345 0 0 1 -117.919 394.463)"/><path d="M448.969 188.63C448.969 190.225 449.566 191.819 450.76 193.015 451.954 194.21 453.552 194.808 455.146 194.808L482.55 194.709C484.143 194.708 485.737 194.111 486.834 193.015 487.928 191.918 488.626 190.225 488.626 188.63L488.626 185.641 448.969 185.641 448.969 188.63Z" fill="#FFFFFF" fill-rule="evenodd" fill-opacity="1" transform="matrix(1.00345 0 0 1 -117.919 394.463)"/><path d="M393.761 173.483C393.761 172.686 394.16 171.889 394.658 171.391 395.156 170.893 395.954 170.494 396.751 170.494L446.075 170.394C446.874 170.394 447.673 170.793 448.17 171.291 448.666 171.789 449.065 172.586 449.065 173.384L448.969 179.462 488.626 179.462C488.626 176.872 488.626 174.48 488.626 172.885 488.727 168.999 487.431 165.312 484.841 162.522 480.653 157.739 475.275 154.55 469.594 151.859 464.312 149.767 458.732 148.372 453.152 147.375 432.724 143.29 411.798 142.891 391.37 146.379 387.882 146.877 384.494 147.674 381.106 148.671 373.632 151.162 366.557 154.65 360.479 159.931 356.393 163.419 354.101 168.7 354.301 174.081L354.301 179.462 393.861 179.562 393.761 173.483Z" fill="#FFFFFF" fill-rule="evenodd" fill-opacity="1" transform="matrix(1.00345 0 0 1 -117.919 394.463)"/><path d="M360.379 194.709 387.882 194.709C389.476 194.709 391.071 194.111 392.267 192.915 393.462 191.719 394.06 190.124 394.06 188.53L393.961 185.441 354.301 185.441 354.301 188.431C354.301 190.025 354.898 191.619 356.094 192.815 357.29 194.011 358.785 194.709 360.379 194.709Z" fill="#FFFFFF" fill-rule="evenodd" fill-opacity="1" transform="matrix(1.00345 0 0 1 -117.919 394.463)"/><path d="M495.22 211.452C509.37 211.452 520.841 222.923 520.841 237.073 520.841 251.224 509.37 262.695 495.22 262.695 481.07 262.695 469.598 251.224 469.598 237.073 469.598 222.923 481.07 211.452 495.22 211.452ZM495.22 208.45C479.41 208.45 466.595 221.265 466.595 237.073 466.595 252.881 479.41 265.696 495.22 265.696 511.029 265.696 523.844 252.881 523.844 237.073 523.844 221.265 511.029 208.45 495.22 208.45ZM495.22 205.464C512.675 205.464 526.83 219.615 526.83 237.073 526.83 254.531 512.675 268.683 495.22 268.683 477.764 268.683 463.61 254.531 463.61 237.073 463.61 219.615 477.764 205.464 495.22 205.464Z" fill="#FFFFFF" fill-rule="evenodd" fill-opacity="1" transform="matrix(1.00345 0 0 1 -117.919 394.463)"/><path d="M421.464 360.281C435.614 360.281 447.085 371.752 447.085 385.903 447.085 400.053 435.614 411.524 421.464 411.524 407.313 411.524 395.842 400.053 395.842 385.903 395.842 371.752 407.313 360.281 421.464 360.281ZM421.464 357.28C405.656 357.28 392.841 370.095 392.841 385.903 392.841 401.711 405.656 414.526 421.464 414.526 437.272 414.526 450.088 401.711 450.088 385.903 450.088 370.095 437.272 357.28 421.464 357.28ZM421.464 354.293C438.921 354.293 453.073 368.445 453.073 385.903 453.073 403.36 438.921 417.512 421.464 417.512 404.006 417.512 389.854 403.36 389.854 385.903 389.854 368.445 404.006 354.293 421.464 354.293Z" fill="#FFFFFF" fill-rule="evenodd" fill-opacity="1" transform="matrix(1.00345 0 0 1 -117.919 394.463)"/><path d="M461.415 286.086C475.565 286.086 487.036 297.557 487.036 311.707 487.036 325.858 475.565 337.329 461.415 337.329 447.265 337.329 435.793 325.858 435.793 311.707 435.793 297.557 447.265 286.086 461.415 286.086ZM461.415 283.084C445.606 283.084 432.792 295.9 432.792 311.707 432.792 327.515 445.606 340.331 461.415 340.331 477.224 340.331 490.039 327.515 490.039 311.707 490.039 295.9 477.224 283.084 461.415 283.084ZM461.415 280.098C478.871 280.098 493.025 294.25 493.025 311.707 493.025 329.165 478.871 343.317 461.415 343.317 443.959 343.317 429.805 329.165 429.805 311.707 429.805 294.25 443.959 280.098 461.415 280.098Z" fill="#FFFFFF" fill-rule="evenodd" fill-opacity="1" transform="matrix(1.00345 0 0 1 -117.919 394.463)"/><path d="M381.536 286.086C395.686 286.086 407.158 297.557 407.158 311.707 407.158 325.858 395.686 337.329 381.536 337.329 367.385 337.329 355.915 325.858 355.915 311.707 355.915 297.557 367.385 286.086 381.536 286.086ZM381.536 283.084C365.728 283.084 352.913 295.9 352.913 311.707 352.913 327.515 365.728 340.331 381.536 340.331 397.344 340.331 410.159 327.515 410.159 311.707 410.159 295.9 397.344 283.084 381.536 283.084ZM381.512 280.098C398.97 280.098 413.122 294.25 413.122 311.707 413.122 329.165 398.97 343.317 381.512 343.317 364.055 343.317 349.903 329.165 349.903 311.707 349.903 294.25 364.055 280.098 381.512 280.098Z" fill="#FFFFFF" fill-rule="evenodd" fill-opacity="1" transform="matrix(1.00345 0 0 1 -117.919 394.463)"/><path d="M421.464 211.452C435.614 211.452 447.085 222.923 447.085 237.073 447.085 251.224 435.614 262.695 421.464 262.695 407.313 262.695 395.842 251.224 395.842 237.073 395.842 222.923 407.313 211.452 421.464 211.452ZM421.464 208.45C405.656 208.45 392.841 221.265 392.841 237.073 392.841 252.881 405.656 265.696 421.464 265.696 437.272 265.696 450.088 252.881 450.088 237.073 450.088 221.265 437.272 208.45 421.464 208.45ZM421.464 205.464C438.921 205.464 453.073 219.615 453.073 237.073 453.073 254.531 438.921 268.683 421.464 268.683 404.006 268.683 389.854 254.531 389.854 237.073 389.854 219.615 404.006 205.464 421.464 205.464Z" fill="#FFFFFF" fill-rule="evenodd" fill-opacity="1" transform="matrix(1.00345 0 0 1 -117.919 394.463)"/></g></g></g></g></g><text fill="#000000" fill-opacity="1" font-family="Hiragino Kaku Gothic Pro W3,Hiragino Kaku Gothic Pro W3_MSFontService,sans-serif" font-style="normal" font-variant="normal" font-weight="700" font-stretch="normal" font-size="128" text-anchor="start" direction="ltr" writing-mode="lr-tb" unicode-bidi="normal" text-decoration="none" transform="matrix(1 0 0 1 558.233 722)">グラフ</text><text fill="#000000" fill-opacity="1" font-family="Hiragino Kaku Gothic Pro W3,Hiragino Kaku Gothic Pro W3_MSFontService,sans-serif" font-style="normal" font-variant="normal" font-weight="700" font-stretch="normal" font-size="128" text-anchor="start" direction="ltr" writing-mode="lr-tb" unicode-bidi="normal" text-decoration="none" transform="matrix(1 0 0 1 950.108 722)">を</text><text fill="#000000" fill-opacity="1" font-family="Hiragino Kaku Gothic Pro W3,Hiragino Kaku Gothic Pro W3_MSFontService,sans-serif" font-style="normal" font-variant="normal" font-weight="700" font-stretch="normal" font-size="128" text-anchor="start" direction="ltr" writing-mode="lr-tb" unicode-bidi="normal" text-decoration="none" transform="matrix(1 0 0 1 1080.73 722)">利用</text><text fill="#000000" fill-opacity="1" font-family="Hiragino Kaku Gothic Pro W3,Hiragino Kaku Gothic Pro W3_MSFontService,sans-serif" font-style="normal" font-variant="normal" font-weight="700" font-stretch="normal" font-size="128" text-anchor="start" direction="ltr" writing-mode="lr-tb" unicode-bidi="normal" text-decoration="none" transform="matrix(1 0 0 1 1341.98 722)">した</text><text fill="#000000" fill-opacity="1" font-family="Hiragino Kaku Gothic Pro W3,Hiragino Kaku Gothic Pro W3_MSFontService,sans-serif" font-style="normal" font-variant="normal" font-weight="700" font-stretch="normal" font-size="128" text-anchor="start" direction="ltr" writing-mode="lr-tb" unicode-bidi="normal" text-decoration="none" transform="matrix(1 0 0 1 1603.23 722)">オンライン</text><text fill="#000000" fill-opacity="1" font-family="Hiragino Kaku Gothic Pro W3,Hiragino Kaku Gothic Pro W3_MSFontService,sans-serif" font-style="normal" font-variant="normal" font-weight="700" font-stretch="normal" font-size="128" text-anchor="start" direction="ltr" writing-mode="lr-tb" unicode-bidi="normal" text-decoration="none" transform="matrix(1 0 0 1 2256.36 722)">対話</text><text fill="#000000" fill-opacity="1" font-family="Hiragino Kaku Gothic Pro W3,Hiragino Kaku Gothic Pro W3_MSFontService,sans-serif" font-style="normal" font-variant="normal" font-weight="700" font-stretch="normal" font-size="128" text-anchor="start" direction="ltr" writing-mode="lr-tb" unicode-bidi="normal" text-decoration="none" transform="matrix(1 0 0 1 2517.61 722)">環境</text><path d="M3086 564.52C3086 553.739 3094.74 545 3105.52 545L4238.48 545C4249.26 545 4258 553.739 4258 564.52L4258 785.479C4258 796.26 4249.26 805 4238.48 805L3105.52 805C3094.74 805 3086 796.26 3086 785.479Z" fill="url(#fill2)" fill-rule="evenodd"/><text fill="#FFFFFF" fill-opacity="1" font-family="Yu Gothic,Yu Gothic_MSFontService,sans-serif" font-style="normal" font-variant="normal" font-weight="700" font-stretch="normal" font-size="128" text-anchor="start" direction="ltr" writing-mode="lr-tb" unicode-bidi="normal" text-decoration="none" transform="matrix(1 0 0 1 3268.33 716)">体験版</text><text fill="#FFFFFF" fill-opacity="1" font-family="Yu Gothic,Yu Gothic_MSFontService,sans-serif" font-style="normal" font-variant="normal" font-weight="700" font-stretch="normal" font-size="128" text-anchor="start" direction="ltr" writing-mode="lr-tb" unicode-bidi="normal" text-decoration="none" transform="matrix(1 0 0 1 3690 716)">お試し</text></g></g></svg>