<svg width="4418" height="541" xmlns="http://www.w3.org/2000/svg" xmlns:xlink="http://www.w3.org/1999/xlink" xml:space="preserve" overflow="hidden"><defs><linearGradient x1="961.083" y1="395.583" x2="3438.92" y2="2873.42" gradientUnits="userSpaceOnUse" spreadMethod="reflect" id="stroke0"><stop offset="0" stop-color="#AC32E4" stop-opacity="1"/><stop offset="0.5" stop-color="#7918F2" stop-opacity="1"/><stop offset="1" stop-color="#4801FF" stop-opacity="1"/></linearGradient><linearGradient x1="260.485" y1="119.123" x2="585.044" y2="444.123" gradientUnits="userSpaceOnUse" spreadMethod="reflect" id="fill1"><stop offset="0" stop-color="#AC32E4" stop-opacity="1"/><stop offset="0.48" stop-color="#7918F2" stop-opacity="1"/><stop offset="1" stop-color="#4801FF" stop-opacity="1"/></linearGradient><linearGradient x1="3617.43" y1="1387.56" x2="3726.57" y2="1881.44" gradientUnits="userSpaceOnUse" spreadMethod="reflect" id="fill2"><stop offset="0" stop-color="#AC32E4" stop-opacity="1"/><stop offset="0.48" stop-color="#7918F2" stop-opacity="1"/><stop offset="1" stop-color="#4801FF" stop-opacity="1"/></linearGradient></defs><g transform="translate(9 -1365)"><g><rect x="0" y="1375" width="4400" height="519" stroke="url(#stroke0)" stroke-width="18.3333" stroke-linecap="butt" stroke-linejoin="miter" stroke-miterlimit="8" fill="#7918F2" fill-opacity="0.0509804"/><g><g><g><g><g><path d="M260.264 143.711C260.264 130.253 271.174 119.343 284.632 119.343L560.898 119.343C574.356 119.343 585.265 130.253 585.265 143.711L585.265 419.535C585.265 432.993 574.356 443.903 560.898 443.903L284.632 443.903C271.174 443.903 260.264 432.993 260.264 419.535Z" fill="url(#fill1)" fill-rule="evenodd" transform="matrix(1.00036 0 0 1 -117.919 1353.1)"/><path d="M348.781 212.524C362.975 212.524 374.481 224.031 374.481 238.225 374.481 252.419 362.975 263.926 348.781 263.926 334.586 263.926 323.08 252.419 323.08 238.225 323.08 224.031 334.586 212.524 348.781 212.524ZM348.781 209.514C332.924 209.514 320.069 222.368 320.069 238.225 320.069 254.082 332.924 266.936 348.781 266.936 364.637 266.936 377.492 254.082 377.492 238.225 377.492 222.368 364.637 209.514 348.781 209.514ZM348.781 206.098C366.292 206.098 380.488 220.293 380.488 237.805 380.488 255.317 366.292 269.512 348.781 269.512 331.269 269.512 317.073 255.317 317.073 237.805 317.073 220.293 331.269 206.098 348.781 206.098Z" fill="#FFFFFF" fill-rule="evenodd" fill-opacity="1" transform="matrix(1.00036 0 0 1 -117.919 1353.1)"/><path d="M450.354 189.212C450.354 190.812 450.953 192.411 452.151 193.61 453.349 194.81 454.952 195.41 456.55 195.41L484.039 195.31C485.638 195.309 487.236 194.71 488.337 193.61 489.434 192.511 490.134 190.812 490.134 189.212L490.134 186.214 450.354 186.214 450.354 189.212Z" fill="#FFFFFF" fill-rule="evenodd" fill-opacity="1" transform="matrix(1.00036 0 0 1 -117.919 1353.1)"/><path d="M394.977 174.019C394.977 173.219 395.376 172.42 395.876 171.92 396.376 171.42 397.176 171.02 397.976 171.02L447.452 170.92C448.254 170.92 449.055 171.32 449.553 171.82 450.05 172.32 450.451 173.119 450.451 173.919L450.354 180.016 490.134 180.016C490.134 177.418 490.134 175.018 490.134 173.419 490.235 169.521 488.936 165.822 486.338 163.024 482.136 158.226 476.742 155.027 471.043 152.328 465.746 150.229 460.148 148.83 454.551 147.83 434.059 143.732 413.069 143.332 392.578 146.831 389.079 147.331 385.681 148.13 382.282 149.13 374.786 151.628 367.689 155.127 361.591 160.425 357.493 163.923 355.194 169.221 355.394 174.618L355.394 180.016 395.077 180.116 394.977 174.019Z" fill="#FFFFFF" fill-rule="evenodd" fill-opacity="1" transform="matrix(1.00036 0 0 1 -117.919 1353.1)"/><path d="M361.491 195.31 389.079 195.31C390.678 195.31 392.278 194.71 393.477 193.51 394.677 192.311 395.276 190.711 395.276 189.112L395.176 186.014 355.394 186.014 355.394 189.012C355.394 190.612 355.994 192.211 357.193 193.41 358.393 194.61 359.892 195.31 361.491 195.31Z" fill="#FFFFFF" fill-rule="evenodd" fill-opacity="1" transform="matrix(1.00036 0 0 1 -117.919 1353.1)"/><path d="M496.748 212.104C510.942 212.104 522.449 223.611 522.449 237.805 522.449 251.999 510.942 263.506 496.748 263.506 482.555 263.506 471.048 251.999 471.048 237.805 471.048 223.611 482.555 212.104 496.748 212.104ZM496.748 209.094C480.89 209.094 468.036 221.948 468.036 237.805 468.036 253.662 480.89 266.516 496.748 266.516 512.606 266.516 525.461 253.662 525.461 237.805 525.461 221.948 512.606 209.094 496.748 209.094ZM496.748 206.098C514.258 206.098 528.456 220.293 528.456 237.805 528.456 255.317 514.258 269.512 496.748 269.512 479.239 269.512 465.041 255.317 465.041 237.805 465.041 220.293 479.239 206.098 496.748 206.098Z" fill="#FFFFFF" fill-rule="evenodd" fill-opacity="1" transform="matrix(1.00036 0 0 1 -117.919 1353.1)"/><path d="M422.764 361.393C436.959 361.393 448.465 372.899 448.465 387.094 448.465 401.288 436.959 412.794 422.764 412.794 408.57 412.794 397.064 401.288 397.064 387.094 397.064 372.899 408.57 361.393 422.764 361.393ZM422.764 358.382C406.908 358.382 394.053 371.237 394.053 387.094 394.053 402.951 406.908 415.805 422.764 415.805 438.621 415.805 451.477 402.951 451.477 387.094 451.477 371.237 438.621 358.382 422.764 358.382ZM422.764 355.386C440.276 355.386 454.472 369.582 454.472 387.094 454.472 404.605 440.276 418.801 422.764 418.801 405.253 418.801 391.057 404.605 391.057 387.094 391.057 369.582 405.253 355.386 422.764 355.386Z" fill="#FFFFFF" fill-rule="evenodd" fill-opacity="1" transform="matrix(1.00036 0 0 1 -117.919 1353.1)"/><path d="M462.839 286.969C477.032 286.969 488.54 298.475 488.54 312.67 488.54 326.864 477.032 338.37 462.839 338.37 448.646 338.37 437.138 326.864 437.138 312.67 437.138 298.475 448.646 286.969 462.839 286.969ZM462.839 283.958C446.981 283.958 434.128 296.813 434.128 312.67 434.128 328.526 446.981 341.381 462.839 341.381 478.697 341.381 491.552 328.526 491.552 312.67 491.552 296.813 478.697 283.958 462.839 283.958ZM462.839 280.962C480.349 280.962 494.546 295.158 494.546 312.67 494.546 330.181 480.349 344.377 462.839 344.377 445.33 344.377 431.132 330.181 431.132 312.67 431.132 295.158 445.33 280.962 462.839 280.962Z" fill="#FFFFFF" fill-rule="evenodd" fill-opacity="1" transform="matrix(1.00036 0 0 1 -117.919 1353.1)"/><path d="M382.714 286.969C396.908 286.969 408.414 298.475 408.414 312.67 408.414 326.864 396.908 338.37 382.714 338.37 368.519 338.37 357.013 326.864 357.013 312.67 357.013 298.475 368.519 286.969 382.714 286.969ZM382.714 283.958C366.857 283.958 354.002 296.813 354.002 312.67 354.002 328.526 366.857 341.381 382.714 341.381 398.57 341.381 411.425 328.526 411.425 312.67 411.425 296.813 398.57 283.958 382.714 283.958ZM382.69 280.962C400.202 280.962 414.397 295.158 414.397 312.67 414.397 330.181 400.202 344.377 382.69 344.377 365.178 344.377 350.983 330.181 350.983 312.67 350.983 295.158 365.178 280.962 382.69 280.962Z" fill="#FFFFFF" fill-rule="evenodd" fill-opacity="1" transform="matrix(1.00036 0 0 1 -117.919 1353.1)"/><path d="M422.764 212.104C436.959 212.104 448.465 223.611 448.465 237.805 448.465 251.999 436.959 263.506 422.764 263.506 408.57 263.506 397.064 251.999 397.064 237.805 397.064 223.611 408.57 212.104 422.764 212.104ZM422.764 209.094C406.908 209.094 394.053 221.948 394.053 237.805 394.053 253.662 406.908 266.516 422.764 266.516 438.621 266.516 451.477 253.662 451.477 237.805 451.477 221.948 438.621 209.094 422.764 209.094ZM422.764 206.098C440.276 206.098 454.472 220.293 454.472 237.805 454.472 255.317 440.276 269.512 422.764 269.512 405.253 269.512 391.057 255.317 391.057 237.805 391.057 220.293 405.253 206.098 422.764 206.098Z" fill="#FFFFFF" fill-rule="evenodd" fill-opacity="1" transform="matrix(1.00036 0 0 1 -117.919 1353.1)"/></g></g></g></g></g><text fill="#000000" fill-opacity="1" font-family="Yu Gothic,Yu Gothic_MSFontService,sans-serif" font-style="normal" font-variant="normal" font-weight="700" font-stretch="normal" font-size="128" text-anchor="start" direction="ltr" writing-mode="lr-tb" unicode-bidi="normal" text-decoration="none" transform="matrix(1 0 0 1 558.233 1597)">Online Communication Environment</text><text fill="#000000" fill-opacity="1" font-family="Yu Gothic,Yu Gothic_MSFontService,sans-serif" font-style="normal" font-variant="normal" font-weight="700" font-stretch="normal" font-size="128" text-anchor="start" direction="ltr" writing-mode="lr-tb" unicode-bidi="normal" text-decoration="none" transform="matrix(1 0 0 1 558.233 1753)">Using Graphs</text><path d="M3086 1524.45C3086 1513.71 3094.71 1505 3105.45 1505L4238.55 1505C4249.29 1505 4258 1513.71 4258 1524.45L4258 1744.55C4258 1755.29 4249.29 1764 4238.55 1764L3105.45 1764C3094.71 1764 3086 1755.29 3086 1744.55Z" fill="url(#fill2)" fill-rule="evenodd"/><text fill="#FFFFFF" fill-opacity="1" font-family="Yu Gothic,Yu Gothic_MSFontService,sans-serif" font-style="normal" font-variant="normal" font-weight="700" font-stretch="normal" font-size="128" text-anchor="start" direction="ltr" writing-mode="lr-tb" unicode-bidi="normal" text-decoration="none" transform="matrix(1 0 0 1 3254.29 1676)">Try the Demo</text></g></g></svg>