<svg width="723" height="720" xmlns="http://www.w3.org/2000/svg" xmlns:xlink="http://www.w3.org/1999/xlink" xml:space="preserve" overflow="hidden"><defs><clipPath id="clip0"><rect x="278" y="0" width="723" height="720"/></clipPath><clipPath id="clip1"><rect x="278" y="0" width="723" height="720"/></clipPath><clipPath id="clip2"><rect x="279" y="0" width="722" height="720"/></clipPath><clipPath id="clip3"><rect x="279" y="0" width="722" height="720"/></clipPath><clipPath id="clip4"><rect x="279" y="0" width="722" height="720"/></clipPath><clipPath id="clip5"><rect x="279" y="0" width="722" height="720"/></clipPath><clipPath id="clip6"><rect x="279" y="0" width="722" height="720"/></clipPath><linearGradient x1="577.073" y1="263.902" x2="1296.1" y2="983.902" gradientUnits="userSpaceOnUse" spreadMethod="reflect" id="fill7"><stop offset="0" stop-color="#AC32E4" stop-opacity="1"/><stop offset="0.48" stop-color="#7918F2" stop-opacity="1"/><stop offset="1" stop-color="#4801FF" stop-opacity="1"/></linearGradient></defs><g clip-path="url(#clip0)" transform="translate(-278 0)"><g clip-path="url(#clip1)"><g clip-path="url(#clip2)"><g clip-path="url(#clip3)"><g clip-path="url(#clip4)"><g clip-path="url(#clip5)"><g clip-path="url(#clip6)"><path d="M576.585 318.375C576.585 288.56 600.755 264.39 630.57 264.39L1242.6 264.39C1272.42 264.39 1296.59 288.56 1296.59 318.375L1296.59 929.43C1296.59 959.245 1272.42 983.415 1242.6 983.415L630.57 983.415C600.755 983.415 576.585 959.245 576.585 929.43Z" fill="url(#fill7)" fill-rule="evenodd" transform="matrix(1.00007 0 0 1 -296.649 -263.415)"/><path d="M772.683 470.822C804.129 470.822 829.62 496.314 829.62 527.76 829.62 559.205 804.129 584.697 772.683 584.697 741.237 584.697 715.746 559.205 715.746 527.76 715.746 496.314 741.237 470.822 772.683 470.822ZM772.683 464.153C737.554 464.153 709.076 492.63 709.076 527.76 709.076 562.889 737.554 591.366 772.683 591.366 807.812 591.366 836.29 562.889 836.29 527.76 836.29 492.63 807.812 464.153 772.683 464.153ZM772.683 456.585C811.478 456.585 842.927 488.034 842.927 526.829 842.927 565.624 811.478 597.073 772.683 597.073 733.888 597.073 702.439 565.624 702.439 526.829 702.439 488.034 733.888 456.585 772.683 456.585Z" fill="#FFFFFF" fill-rule="evenodd" fill-opacity="1" transform="matrix(1.00007 0 0 1 -296.649 -263.415)"/><path d="M997.707 419.178C997.707 422.721 999.034 426.263 1001.69 428.921 1004.34 431.579 1007.89 432.907 1011.43 432.907L1072.33 432.686C1075.87 432.685 1079.41 431.357 1081.85 428.921 1084.28 426.485 1085.83 422.721 1085.83 419.178L1085.83 412.535 997.707 412.535 997.707 419.178Z" fill="#FFFFFF" fill-rule="evenodd" fill-opacity="1" transform="matrix(1.00007 0 0 1 -296.649 -263.415)"/><path d="M875.024 385.518C875.024 383.747 875.91 381.976 877.018 380.868 878.125 379.761 879.897 378.875 881.668 378.875L991.278 378.654C993.054 378.654 994.829 379.54 995.932 380.647 997.034 381.754 997.922 383.525 997.922 385.297L997.707 398.805 1085.83 398.805C1085.83 393.048 1085.83 387.733 1085.83 384.189 1086.06 375.553 1083.18 367.36 1077.42 361.16 1068.12 350.531 1056.17 343.445 1043.54 337.465 1031.8 332.816 1019.4 329.715 1007 327.5 961.608 318.421 915.105 317.536 869.71 325.286 861.96 326.394 854.431 328.165 846.901 330.38 830.294 335.915 814.572 343.666 801.063 355.402 791.984 363.153 786.892 374.889 787.335 386.847L787.335 398.805 875.246 399.026 875.024 385.518Z" fill="#FFFFFF" fill-rule="evenodd" fill-opacity="1" transform="matrix(1.00007 0 0 1 -296.649 -263.415)"/><path d="M800.842 432.686 861.96 432.686C865.503 432.686 869.046 431.357 871.703 428.7 874.36 426.042 875.689 422.499 875.689 418.956L875.467 412.092 787.335 412.092 787.335 418.735C787.335 422.278 788.662 425.82 791.32 428.478 793.978 431.136 797.299 432.686 800.842 432.686Z" fill="#FFFFFF" fill-rule="evenodd" fill-opacity="1" transform="matrix(1.00007 0 0 1 -296.649 -263.415)"/><path d="M1100.49 469.893C1131.93 469.893 1157.42 495.383 1157.42 526.829 1157.42 558.275 1131.93 583.766 1100.49 583.766 1069.04 583.766 1043.55 558.275 1043.55 526.829 1043.55 495.383 1069.04 469.893 1100.49 469.893ZM1100.49 463.222C1065.36 463.222 1036.88 491.701 1036.88 526.829 1036.88 561.958 1065.36 590.436 1100.49 590.436 1135.62 590.436 1164.1 561.958 1164.1 526.829 1164.1 491.701 1135.62 463.222 1100.49 463.222ZM1100.49 456.585C1139.28 456.585 1170.73 488.034 1170.73 526.829 1170.73 565.624 1139.28 597.073 1100.49 597.073 1061.7 597.073 1030.24 565.624 1030.24 526.829 1030.24 488.034 1061.7 456.585 1100.49 456.585Z" fill="#FFFFFF" fill-rule="evenodd" fill-opacity="1" transform="matrix(1.00007 0 0 1 -296.649 -263.415)"/><path d="M936.585 800.624C968.031 800.624 993.522 826.115 993.522 857.561 993.522 889.007 968.031 914.498 936.585 914.498 905.14 914.498 879.649 889.007 879.649 857.561 879.649 826.115 905.14 800.624 936.585 800.624ZM936.585 793.954C901.457 793.954 872.979 822.432 872.979 857.561 872.979 892.69 901.457 921.168 936.585 921.168 971.714 921.168 1000.2 892.69 1000.2 857.561 1000.2 822.432 971.714 793.954 936.585 793.954ZM936.585 787.317C975.381 787.317 1006.83 818.766 1006.83 857.561 1006.83 896.356 975.381 927.805 936.585 927.805 897.79 927.805 866.341 896.356 866.341 857.561 866.341 818.766 897.79 787.317 936.585 787.317Z" fill="#FFFFFF" fill-rule="evenodd" fill-opacity="1" transform="matrix(1.00007 0 0 1 -296.649 -263.415)"/><path d="M1025.37 635.746C1056.81 635.746 1082.3 661.237 1082.3 692.683 1082.3 724.129 1056.81 749.62 1025.37 749.62 993.922 749.62 968.429 724.129 968.429 692.683 968.429 661.237 993.922 635.746 1025.37 635.746ZM1025.37 629.076C990.234 629.076 961.759 657.554 961.759 692.683 961.759 727.812 990.234 756.29 1025.37 756.29 1060.5 756.29 1088.98 727.812 1088.98 692.683 1088.98 657.554 1060.5 629.076 1025.37 629.076ZM1025.37 622.439C1064.16 622.439 1095.61 653.888 1095.61 692.683 1095.61 731.478 1064.16 762.927 1025.37 762.927 986.576 762.927 955.122 731.478 955.122 692.683 955.122 653.888 986.576 622.439 1025.37 622.439Z" fill="#FFFFFF" fill-rule="evenodd" fill-opacity="1" transform="matrix(1.00007 0 0 1 -296.649 -263.415)"/><path d="M847.858 635.746C879.302 635.746 904.794 661.237 904.794 692.683 904.794 724.129 879.302 749.62 847.858 749.62 816.412 749.62 790.921 724.129 790.921 692.683 790.921 661.237 816.412 635.746 847.858 635.746ZM847.858 629.076C812.729 629.076 784.251 657.554 784.251 692.683 784.251 727.812 812.729 756.29 847.858 756.29 882.986 756.29 911.464 727.812 911.464 692.683 911.464 657.554 882.986 629.076 847.858 629.076ZM847.805 622.439C886.6 622.439 918.049 653.888 918.049 692.683 918.049 731.478 886.6 762.927 847.805 762.927 809.01 762.927 777.561 731.478 777.561 692.683 777.561 653.888 809.01 622.439 847.805 622.439Z" fill="#FFFFFF" fill-rule="evenodd" fill-opacity="1" transform="matrix(1.00007 0 0 1 -296.649 -263.415)"/><path d="M936.585 469.893C968.031 469.893 993.522 495.383 993.522 526.829 993.522 558.275 968.031 583.766 936.585 583.766 905.14 583.766 879.649 558.275 879.649 526.829 879.649 495.383 905.14 469.893 936.585 469.893ZM936.585 463.222C901.457 463.222 872.979 491.701 872.979 526.829 872.979 561.958 901.457 590.436 936.585 590.436 971.714 590.436 1000.2 561.958 1000.2 526.829 1000.2 491.701 971.714 463.222 936.585 463.222ZM936.585 456.585C975.381 456.585 1006.83 488.034 1006.83 526.829 1006.83 565.624 975.381 597.073 936.585 597.073 897.79 597.073 866.341 565.624 866.341 526.829 866.341 488.034 897.79 456.585 936.585 456.585Z" fill="#FFFFFF" fill-rule="evenodd" fill-opacity="1" transform="matrix(1.00007 0 0 1 -296.649 -263.415)"/></g></g></g></g></g></g></g></svg>