<svg width="480" height="624" xmlns="http://www.w3.org/2000/svg" xmlns:xlink="http://www.w3.org/1999/xlink" xml:space="preserve" overflow="hidden"><g transform="translate(-400 -48)"><g><path d="M472 202.593C504.232 202.593 530.36 228.722 530.36 260.954 530.36 293.185 504.232 319.314 472 319.314 439.768 319.314 413.64 293.185 413.64 260.954 413.64 228.722 439.768 202.593 472 202.593ZM472 195.757C435.993 195.757 406.803 224.946 406.803 260.954 406.803 296.961 435.993 326.15 472 326.15 508.007 326.15 537.197 296.961 537.197 260.954 537.197 224.946 508.007 195.757 472 195.757ZM472 188C511.765 188 544 220.235 544 260 544 299.765 511.765 332 472 332 432.235 332 400 299.765 400 260 400 220.235 432.235 188 472 188Z" fill="#FFFFFF" fill-rule="evenodd" fill-opacity="1"/><path d="M702.65 149.657C702.65 153.289 704.01 156.92 706.73 159.644 709.45 162.368 713.09 163.73 716.72 163.73L779.14 163.503C782.77 163.502 786.4 162.141 788.9 159.644 791.39 157.147 792.98 153.289 792.98 149.657L792.98 142.848 702.65 142.848 702.65 149.657Z" fill="#FFFFFF" fill-rule="evenodd" fill-opacity="1"/><path d="M576.9 115.156C576.9 113.341 577.808 111.525 578.943 110.39 580.078 109.255 581.894 108.347 583.71 108.347L696.06 108.12C697.88 108.12 699.7 109.028 700.83 110.163 701.96 111.298 702.87 113.113 702.87 114.929L702.65 128.775 792.98 128.775C792.98 122.874 792.98 117.426 792.98 113.794 793.21 104.942 790.26 96.544 784.36 90.189 774.82 79.294 762.57 72.031 749.63 65.902 737.6 61.136 724.89 57.958 712.18 55.688 665.648 46.382 617.983 45.474 571.453 53.418 563.509 54.554 555.792 56.369 548.074 58.639 531.051 64.313 514.936 72.258 501.09 84.287 491.784 92.232 486.564 104.261 487.018 116.518L487.018 128.775 577.127 129.002 576.9 115.156Z" fill="#FFFFFF" fill-rule="evenodd" fill-opacity="1"/><path d="M500.863 163.503 563.509 163.503C567.14 163.503 570.772 162.141 573.496 159.417 576.219 156.693 577.581 153.061 577.581 149.43L577.354 142.394 487.018 142.394 487.018 149.203C487.018 152.835 488.379 156.466 491.103 159.19 493.827 161.914 497.231 163.503 500.863 163.503Z" fill="#FFFFFF" fill-rule="evenodd" fill-opacity="1"/><path d="M808 201.64C840.23 201.64 866.36 227.768 866.36 260 866.36 292.232 840.23 318.36 808 318.36 775.77 318.36 749.64 292.232 749.64 260 749.64 227.768 775.77 201.64 808 201.64ZM808 194.803C771.99 194.803 742.8 223.993 742.8 260 742.8 296.007 771.99 325.197 808 325.197 844.01 325.197 873.2 296.007 873.2 260 873.2 223.993 844.01 194.803 808 194.803ZM808 188C847.76 188 880 220.235 880 260 880 299.765 847.76 332 808 332 768.24 332 736 299.765 736 260 736 220.235 768.24 188 808 188Z" fill="#FFFFFF" fill-rule="evenodd" fill-opacity="1"/><path d="M640 540.64C672.232 540.64 698.36 566.768 698.36 599 698.36 631.232 672.232 657.36 640 657.36 607.768 657.36 581.64 631.232 581.64 599 581.64 566.768 607.768 540.64 640 540.64ZM640 533.803C603.993 533.803 574.803 562.993 574.803 599 574.803 635.007 603.993 664.197 640 664.197 676.007 664.197 705.2 635.007 705.2 599 705.2 562.993 676.007 533.803 640 533.803ZM640 527C679.765 527 712 559.235 712 599 712 638.765 679.765 671 640 671 600.235 671 568 638.765 568 599 568 559.235 600.235 527 640 527Z" fill="#FFFFFF" fill-rule="evenodd" fill-opacity="1"/><path d="M731 371.64C763.23 371.64 789.36 397.768 789.36 430 789.36 462.232 763.23 488.36 731 488.36 698.77 488.36 672.64 462.232 672.64 430 672.64 397.768 698.77 371.64 731 371.64ZM731 364.803C694.99 364.803 665.803 393.993 665.803 430 665.803 466.007 694.99 495.197 731 495.197 767.01 495.197 796.2 466.007 796.2 430 796.2 393.993 767.01 364.803 731 364.803ZM731 358C770.76 358 803 390.235 803 430 803 469.765 770.76 502 731 502 691.24 502 659 469.765 659 430 659 390.235 691.24 358 731 358Z" fill="#FFFFFF" fill-rule="evenodd" fill-opacity="1"/><path d="M549.054 371.64C581.285 371.64 607.414 397.768 607.414 430 607.414 462.232 581.285 488.36 549.054 488.36 516.822 488.36 490.694 462.232 490.694 430 490.694 397.768 516.822 371.64 549.054 371.64ZM549.054 364.803C513.047 364.803 483.857 393.993 483.857 430 483.857 466.007 513.047 495.197 549.054 495.197 585.061 495.197 614.251 466.007 614.251 430 614.251 393.993 585.061 364.803 549.054 364.803ZM549 358C588.765 358 621 390.235 621 430 621 469.765 588.765 502 549 502 509.235 502 477 469.765 477 430 477 390.235 509.235 358 549 358Z" fill="#FFFFFF" fill-rule="evenodd" fill-opacity="1"/><path d="M640 201.64C672.232 201.64 698.36 227.768 698.36 260 698.36 292.232 672.232 318.36 640 318.36 607.768 318.36 581.64 292.232 581.64 260 581.64 227.768 607.768 201.64 640 201.64ZM640 194.803C603.993 194.803 574.803 223.993 574.803 260 574.803 296.007 603.993 325.197 640 325.197 676.007 325.197 705.2 296.007 705.2 260 705.2 223.993 676.007 194.803 640 194.803ZM640 188C679.765 188 712 220.235 712 260 712 299.765 679.765 332 640 332 600.235 332 568 299.765 568 260 568 220.235 600.235 188 640 188Z" fill="#FFFFFF" fill-rule="evenodd" fill-opacity="1"/></g></g></svg>